<svg id="svg" xmlns="http://www.w3.org/2000/svg" xmlns:xlink="http://www.w3.org/1999/xlink" width="400" height="400" viewBox="0, 0, 400,400"><g id="svgg"><path id="path0" d="M206.083 18.641 C 205.174 19.197,204.412 20.236,203.678 21.920 C 203.279 22.835,202.663 23.999,202.310 24.507 C 201.527 25.632,201.484 26.000,202.138 26.000 C 202.693 26.000,203.049 25.640,203.890 24.229 C 204.225 23.667,205.053 22.574,205.730 21.800 C 207.985 19.221,208.194 17.348,206.083 18.641 M164.898 19.000 C 163.017 19.275,160.426 20.442,158.557 21.854 C 157.567 22.603,157.506 22.625,156.776 22.488 C 154.002 21.970,150.022 24.290,146.816 28.294 C 145.105 30.431,144.153 32.530,141.998 38.917 L 141.042 41.750 138.813 42.922 C 132.736 46.116,129.025 49.773,128.066 53.515 C 127.724 54.851,127.842 54.898,128.592 53.722 C 130.386 50.907,133.186 48.343,136.053 46.890 C 137.050 46.385,137.094 46.420,136.676 47.395 C 136.493 47.821,136.070 49.050,135.734 50.127 C 134.249 54.898,133.025 57.320,131.154 59.190 C 130.082 60.263,129.500 60.595,129.500 60.134 C 129.500 59.059,127.462 57.768,125.750 57.757 C 123.256 57.742,122.083 58.653,122.083 60.607 C 122.083 63.036,124.454 64.006,127.530 62.837 C 128.690 62.396,128.618 62.359,128.746 63.463 C 129.143 66.883,126.528 70.515,121.778 73.141 C 111.203 78.987,107.586 64.488,117.521 56.078 C 118.398 55.336,118.745 55.160,119.899 54.874 C 124.710 53.682,128.751 50.661,130.026 47.306 C 130.340 46.479,130.451 44.667,130.187 44.667 C 129.840 44.667,128.384 46.951,128.291 47.641 C 128.087 49.164,127.156 49.827,123.688 50.918 C 120.661 51.870,117.670 52.943,115.896 53.714 L 114.542 54.303 114.865 53.026 C 117.103 44.194,122.116 35.694,126.314 33.611 C 129.644 31.959,132.779 33.879,131.441 36.751 C 130.252 39.306,125.667 40.391,125.667 38.118 C 125.667 37.704,125.696 37.686,126.123 37.849 C 128.046 38.580,130.281 35.893,128.837 34.586 C 127.097 33.012,123.840 35.588,123.779 38.587 C 123.679 43.537,131.679 41.357,133.353 35.979 C 134.479 32.361,133.303 30.417,129.988 30.417 C 123.536 30.417,116.262 40.897,113.505 54.167 C 113.319 55.060,113.284 55.102,112.155 55.807 C 109.693 57.342,107.000 60.354,105.648 63.082 L 104.946 64.500 104.212 63.755 C 103.242 62.771,102.604 62.643,101.602 63.230 C 99.623 64.390,97.435 68.194,96.702 71.750 L 96.565 72.417 96.215 70.990 C 95.474 67.974,95.152 67.680,94.000 68.966 C 92.545 70.591,91.057 73.666,89.934 77.374 C 89.635 78.359,89.352 79.204,89.304 79.252 C 88.881 79.675,88.580 74.351,88.944 72.875 C 89.087 72.294,88.761 72.433,88.449 73.085 C 88.015 73.997,86.986 75.017,83.820 77.680 C 79.711 81.136,78.144 83.357,77.294 86.931 L 76.934 88.445 76.326 87.806 C 74.439 85.822,71.697 89.993,71.867 94.588 L 71.917 95.917 72.308 94.671 C 73.935 89.490,75.708 90.017,77.774 96.296 L 78.504 98.513 78.127 99.465 C 77.499 101.052,76.808 100.855,73.969 98.282 C 69.442 94.177,68.830 93.872,68.163 95.392 C 67.823 96.167,67.410 98.073,67.255 99.583 C 67.199 100.133,67.116 100.822,67.071 101.113 L 66.989 101.643 66.068 101.222 C 63.347 99.976,61.928 102.417,61.934 108.333 L 61.937 111.417 60.309 108.083 C 55.757 98.760,54.610 93.824,55.411 86.999 C 56.014 81.854,57.620 77.940,60.263 75.174 C 61.473 73.908,61.500 73.861,61.500 73.023 C 61.500 72.067,61.503 72.070,60.842 72.412 C 58.161 73.799,54.840 81.975,53.904 89.494 C 52.893 97.619,55.166 105.310,61.664 115.750 C 63.702 119.024,63.981 119.529,64.502 120.866 C 64.918 121.937,64.980 122.016,65.150 121.698 C 65.724 120.626,65.573 119.416,64.503 116.496 C 62.845 111.971,62.783 106.567,64.370 104.877 C 65.648 103.518,69.244 106.687,69.622 109.506 C 69.728 110.294,69.432 111.550,68.961 112.312 L 68.614 112.874 68.370 112.396 C 67.315 110.331,65.374 111.509,66.000 113.833 C 66.563 115.925,68.268 115.984,69.564 113.958 C 71.679 110.651,71.254 105.575,68.643 102.954 L 67.684 101.991 67.910 100.597 C 68.395 97.597,69.155 97.655,73.144 100.992 C 76.211 103.558,77.404 103.714,78.671 101.716 L 79.156 100.951 79.344 101.434 C 79.698 102.345,84.802 122.914,85.646 126.833 C 85.912 128.071,86.264 129.871,86.427 130.833 C 86.755 132.768,86.783 132.848,87.007 132.495 C 87.499 131.717,86.828 127.168,84.317 114.250 C 81.916 101.900,80.515 96.614,78.099 90.775 L 77.507 89.346 77.837 88.278 C 78.212 87.062,79.475 85.052,80.448 84.121 L 81.105 83.492 80.893 84.704 C 79.244 94.102,85.360 98.063,88.511 89.638 C 88.995 88.344,88.847 87.806,90.236 95.917 C 91.485 103.213,91.596 104.018,93.168 117.333 C 94.676 130.109,94.559 129.345,94.950 128.955 C 95.191 128.714,95.189 128.365,94.932 124.970 C 93.730 109.132,92.473 98.199,90.558 86.917 C 89.652 81.576,89.662 81.882,90.326 79.579 C 91.263 76.332,93.047 72.617,93.785 72.376 C 94.077 72.281,94.435 73.257,94.917 75.470 C 95.151 76.541,95.488 78.054,95.666 78.833 C 96.649 83.122,97.809 93.826,98.411 104.167 C 98.552 106.596,98.745 109.821,98.840 111.333 C 99.081 115.193,100.068 125.916,100.665 131.159 C 100.941 133.585,101.167 135.816,101.167 136.118 C 101.167 136.818,101.367 136.816,101.746 136.112 C 102.037 135.573,102.030 135.397,101.522 129.820 C 100.545 119.111,100.262 114.454,99.918 103.417 C 99.519 90.661,99.263 87.712,97.991 81.231 C 96.906 75.705,97.170 72.981,99.178 68.980 C 100.538 66.270,101.605 66.047,103.481 68.082 C 105.655 70.441,105.809 73.446,103.845 75.220 C 103.029 75.957,102.943 75.973,103.077 75.362 C 103.437 73.723,101.390 73.080,100.493 74.551 C 99.552 76.094,100.604 77.962,102.320 77.797 C 105.542 77.487,107.673 71.576,106.192 67.056 C 105.574 65.170,106.411 63.105,108.751 60.743 C 110.856 58.620,116.473 55.325,114.632 57.293 C 108.843 63.486,108.219 74.700,113.531 77.084 C 119.474 79.751,129.961 71.069,130.072 63.391 L 130.097 61.698 130.923 61.042 C 132.564 59.739,133.884 58.024,134.906 55.866 C 135.478 54.656,135.457 54.664,136.019 55.477 C 137.323 57.364,139.538 57.007,142.020 54.508 L 143.457 53.061 142.658 56.155 C 142.218 57.857,141.110 61.913,140.195 65.167 C 137.876 73.416,137.088 76.335,135.248 83.500 C 134.014 88.307,131.628 97.203,130.544 101.042 C 130.498 101.202,130.526 101.331,130.606 101.328 C 130.988 101.314,131.294 100.809,131.611 99.667 C 131.802 98.979,133.061 94.854,134.408 90.500 C 135.755 86.146,137.195 81.383,137.609 79.917 C 138.023 78.450,139.325 73.987,140.503 70.000 C 143.341 60.389,143.523 59.745,144.400 56.250 C 145.864 50.420,147.075 46.771,148.465 43.997 L 149.250 42.431 150.750 41.822 C 155.483 39.902,160.000 35.846,160.000 33.517 C 160.000 32.879,158.056 34.235,157.918 34.969 C 157.594 36.696,154.391 38.525,149.559 39.742 C 147.788 40.188,147.782 40.389,149.649 36.596 C 155.085 25.553,162.370 19.768,167.277 22.597 C 170.593 24.508,167.255 28.449,163.750 26.761 L 162.917 26.360 163.569 26.346 C 166.018 26.297,167.029 23.472,164.833 22.813 C 162.249 22.039,159.483 25.696,161.292 27.494 C 163.870 30.058,168.732 28.822,170.576 25.135 C 172.086 22.118,170.809 19.641,167.422 19.015 C 166.347 18.816,166.158 18.815,164.898 19.000 M237.197 19.516 C 229.863 21.056,222.193 25.521,216.957 31.300 C 216.318 32.006,215.635 32.632,215.439 32.692 C 214.412 33.005,211.656 32.824,208.809 32.257 C 197.421 29.990,186.955 31.785,180.305 37.147 C 178.312 38.754,178.508 38.811,181.305 37.441 C 185.726 35.276,189.521 34.048,192.250 33.898 L 193.750 33.815 193.167 34.270 C 190.016 36.728,187.750 39.858,187.750 41.754 C 187.750 45.471,191.822 45.421,197.156 41.637 L 198.063 40.994 198.358 41.773 C 199.221 44.044,201.333 44.648,204.542 43.542 C 205.344 43.266,206.000 43.077,206.000 43.122 C 206.000 43.312,202.438 47.933,200.507 50.250 C 197.080 54.360,190.327 61.051,182.500 68.093 C 179.437 70.849,179.416 70.873,180.195 70.725 C 180.869 70.597,180.536 70.848,184.580 67.425 C 196.094 57.676,196.684 57.088,210.815 41.283 L 214.213 37.483 215.774 36.734 C 221.649 33.915,221.589 34.886,215.444 42.060 C 213.862 43.906,209.198 49.354,205.079 54.167 C 194.847 66.122,190.319 71.116,182.625 78.933 C 180.631 80.958,179.000 82.670,179.000 82.738 C 179.000 83.970,195.568 67.395,207.021 54.705 C 215.819 44.957,214.911 45.703,218.167 45.548 C 220.363 45.443,222.835 45.840,227.767 47.090 C 234.019 48.675,238.332 48.696,241.807 47.159 C 242.660 46.781,242.669 46.594,241.823 46.836 C 240.594 47.189,237.623 46.931,236.090 46.339 L 235.597 46.148 236.840 45.476 C 237.524 45.106,238.660 44.368,239.365 43.837 C 240.547 42.947,240.762 42.851,242.115 42.605 C 246.438 41.819,248.836 41.773,248.832 42.476 C 248.824 43.917,243.200 49.385,241.011 50.080 C 240.257 50.319,240.673 50.545,241.708 50.458 C 243.609 50.297,245.916 49.104,248.177 47.111 C 250.421 45.132,255.984 43.554,257.448 44.480 C 260.238 46.244,255.214 52.609,251.572 51.926 L 250.938 51.807 251.469 51.391 C 252.568 50.531,251.889 48.667,250.477 48.667 C 247.722 48.667,247.058 52.064,249.637 52.964 C 256.361 55.312,266.113 46.035,260.050 43.058 C 258.405 42.250,254.534 42.505,251.917 43.594 C 251.702 43.683,251.843 43.438,252.312 42.908 C 253.973 41.027,253.842 40.472,251.703 40.333 L 250.417 40.250 251.917 39.132 C 261.788 31.773,274.361 30.455,274.361 36.780 C 274.361 39.527,270.840 40.243,269.044 37.862 C 268.214 36.761,268.261 35.657,269.110 36.325 C 270.139 37.134,272.148 36.900,272.617 35.917 C 273.522 34.018,270.740 32.732,268.243 33.894 C 264.814 35.491,266.364 40.062,270.532 40.646 C 278.415 41.749,279.740 32.683,271.895 31.317 C 265.714 30.241,258.581 32.763,249.916 39.087 L 248.027 40.466 245.130 40.950 L 242.233 41.435 242.783 40.617 C 244.748 37.698,240.991 36.047,235.000 37.197 L 233.750 37.436 233.743 36.825 C 233.714 34.395,230.239 34.119,225.041 36.135 L 223.344 36.793 223.901 36.105 C 225.603 34.003,225.320 33.236,222.857 33.270 C 221.309 33.291,219.611 33.742,217.500 34.692 L 216.417 35.179 218.250 33.323 C 227.235 24.224,235.755 19.269,240.197 20.561 C 241.432 20.920,243.188 20.357,242.520 19.816 C 241.669 19.127,239.605 19.011,237.197 19.516 M199.575 21.030 C 198.927 21.598,198.919 21.677,199.346 23.090 C 199.628 24.019,199.442 24.800,198.661 25.969 C 197.290 28.023,198.747 28.109,200.311 26.066 C 202.631 23.036,202.024 18.880,199.575 21.030 M207.500 21.457 C 205.463 22.442,202.596 27.174,204.042 27.164 C 204.555 27.161,204.697 27.037,205.215 26.139 C 205.722 25.261,206.797 24.260,207.667 23.855 C 208.748 23.353,209.441 22.844,209.639 22.411 C 210.119 21.357,208.863 20.797,207.500 21.457 M154.387 25.610 C 154.448 25.670,154.246 26.026,153.938 26.401 C 152.083 28.667,147.261 37.471,146.436 40.101 C 146.347 40.385,142.500 41.662,142.500 41.407 C 142.500 40.378,145.669 32.488,146.761 30.796 C 148.860 27.546,153.303 24.525,154.387 25.610 M199.981 34.138 L 203.044 34.417 202.167 34.984 C 200.694 35.938,199.228 37.429,198.673 38.540 C 196.900 42.089,191.004 42.854,191.001 39.535 C 190.999 37.819,194.864 33.826,196.500 33.853 C 196.729 33.857,198.295 33.985,199.981 34.138 M212.685 35.443 C 208.537 40.079,208.867 39.772,207.083 40.668 C 204.660 41.886,203.221 41.977,202.090 40.983 C 200.562 39.642,201.184 37.732,203.868 35.516 L 205.012 34.572 209.233 34.578 L 213.454 34.583 212.685 35.443 M229.333 36.959 C 231.281 37.931,230.481 40.111,227.300 42.499 L 225.858 43.581 222.471 43.602 C 220.085 43.617,218.763 43.698,218.000 43.877 C 217.404 44.017,216.897 44.114,216.874 44.092 C 216.654 43.892,220.765 39.761,221.833 39.109 C 225.206 37.052,227.947 36.266,229.333 36.959 M238.320 38.597 C 240.597 39.508,239.277 42.286,235.305 44.942 L 234.026 45.797 232.638 45.476 C 231.875 45.300,230.366 44.923,229.286 44.638 L 227.322 44.121 228.786 43.239 C 230.622 42.133,232.069 40.966,232.804 39.999 C 233.438 39.164,233.589 39.082,235.250 38.656 C 236.725 38.279,237.488 38.264,238.320 38.597 M287.000 41.188 C 276.025 41.746,266.066 45.211,262.250 49.799 C 260.040 52.456,259.711 54.578,261.376 55.439 L 261.899 55.709 260.706 56.012 C 258.211 56.646,255.556 58.003,254.008 59.436 C 247.676 65.298,259.104 73.500,265.626 67.774 C 268.908 64.892,265.215 59.846,261.167 61.681 C 259.021 62.653,258.500 64.900,260.237 65.691 C 261.771 66.390,263.340 64.596,262.159 63.493 C 261.673 63.039,261.666 63.012,261.982 62.843 C 263.967 61.781,265.916 65.741,264.211 67.374 C 261.495 69.975,255.485 66.582,255.430 62.417 C 255.380 58.619,259.939 56.352,268.544 55.895 C 270.413 55.796,270.736 55.735,271.201 55.391 L 271.731 55.000 269.491 54.999 C 263.698 54.995,262.359 53.873,264.569 50.871 C 266.390 48.397,270.151 45.988,274.234 44.680 C 280.071 42.811,286.126 41.831,290.250 42.089 C 293.252 42.277,294.467 42.266,294.684 42.049 C 295.346 41.387,291.520 40.959,287.000 41.188 M146.095 44.708 C 145.798 45.465,145.235 47.043,144.844 48.217 C 143.251 52.998,139.391 54.968,137.851 51.787 C 137.145 50.327,137.943 47.164,139.446 45.473 C 139.776 45.101,145.112 43.484,146.442 43.352 C 146.556 43.341,146.413 43.898,146.095 44.708 M153.294 47.594 C 152.239 48.166,152.054 49.421,152.900 50.267 C 154.496 51.863,156.858 49.577,155.402 47.846 C 154.909 47.261,154.089 47.163,153.294 47.594 M98.470 48.451 C 97.715 49.314,97.590 51.263,98.146 53.500 C 98.339 54.279,98.498 55.409,98.499 56.010 C 98.500 57.457,98.824 57.958,99.354 57.333 C 99.684 56.944,99.700 56.798,99.593 55.107 C 99.527 54.041,99.559 52.535,99.672 51.441 C 99.946 48.803,99.384 47.406,98.470 48.451 M101.833 49.544 C 100.677 50.115,100.001 53.308,100.484 55.912 C 100.907 58.189,101.710 57.830,101.840 55.304 C 101.922 53.722,101.988 53.444,102.549 52.309 C 103.615 50.150,103.274 48.832,101.833 49.544 M273.681 52.735 L 273.303 53.137 274.443 53.237 C 278.124 53.559,279.163 54.051,278.415 55.119 C 277.626 56.245,269.849 59.628,267.000 60.084 C 265.823 60.273,265.688 60.440,266.602 60.576 C 270.655 61.178,276.415 64.220,282.250 68.839 C 286.415 72.137,291.253 74.497,293.852 74.500 C 294.228 74.500,294.276 74.558,294.206 74.922 C 293.817 76.961,296.731 79.017,301.417 80.009 L 302.417 80.220 301.583 80.478 C 299.699 81.062,287.045 85.253,282.000 86.964 C 277.673 88.431,275.276 89.126,270.083 90.415 C 266.508 91.303,263.474 92.064,263.341 92.106 C 263.166 92.161,263.224 92.265,263.553 92.480 C 264.000 92.773,264.076 92.761,268.462 91.726 C 282.470 88.418,286.141 87.436,300.250 83.221 L 310.083 80.284 312.186 80.990 C 317.640 82.821,317.438 83.647,311.138 85.269 L 308.766 85.880 305.849 85.792 C 302.541 85.693,302.553 85.680,304.917 86.843 C 307.741 88.231,308.921 88.274,313.359 87.145 L 316.060 86.458 316.988 86.746 C 318.828 87.315,323.815 90.407,323.462 90.760 C 323.425 90.797,322.837 90.704,322.155 90.553 C 319.391 89.938,315.903 90.209,314.817 91.122 C 312.330 93.215,313.908 96.309,318.820 98.971 L 320.056 99.641 319.486 99.737 C 317.951 99.997,305.193 101.251,297.417 101.907 C 287.620 102.733,278.806 103.279,272.833 103.429 C 268.307 103.543,268.300 103.544,268.910 104.025 C 269.421 104.427,270.818 104.415,283.000 103.904 C 304.260 103.014,312.681 102.432,323.957 101.075 L 327.497 100.649 328.924 101.318 C 331.631 102.586,333.667 104.033,333.667 104.689 C 333.667 105.208,332.709 106.077,330.433 107.625 C 326.726 110.147,326.314 111.426,328.374 114.031 L 329.050 114.886 323.733 114.782 C 315.494 114.622,308.416 113.826,300.425 112.162 C 299.146 111.896,298.063 111.715,298.017 111.760 C 297.370 112.408,302.964 113.713,313.000 115.257 C 322.019 116.644,322.786 116.711,330.441 116.770 L 337.298 116.823 338.576 117.330 C 341.027 118.304,343.833 119.947,343.833 120.409 C 343.833 122.993,312.270 123.537,300.683 121.153 C 298.988 120.804,298.759 120.833,299.260 121.334 C 299.865 121.939,305.539 122.903,311.917 123.485 C 318.566 124.091,321.179 124.218,327.718 124.253 L 334.186 124.288 335.279 125.769 C 335.879 126.583,336.775 128.112,337.269 129.167 C 339.924 134.829,341.895 137.126,345.143 138.341 C 346.480 138.842,346.455 138.695,345.005 137.544 C 343.270 136.166,341.104 133.174,341.532 132.746 C 341.569 132.709,342.506 132.975,343.614 133.336 C 349.251 135.175,352.024 134.760,352.024 132.079 C 352.024 129.684,349.456 127.019,344.797 124.580 L 343.143 123.714 344.613 123.629 C 349.566 123.341,348.440 121.027,341.580 117.396 L 339.772 116.439 340.678 116.256 C 342.387 115.911,343.129 115.194,342.946 114.065 C 342.613 112.012,340.018 109.297,336.986 107.830 L 336.222 107.460 336.894 106.833 C 338.470 105.364,337.309 103.982,332.258 101.312 C 330.394 100.326,331.359 99.975,334.167 100.616 C 334.578 100.709,334.577 100.704,334.059 100.147 C 333.771 99.837,332.186 97.780,330.538 95.575 C 326.175 89.741,323.910 87.862,319.424 86.354 L 318.019 85.882 318.887 85.688 C 322.603 84.856,320.607 82.602,314.359 80.573 C 311.935 79.786,311.950 79.823,313.875 79.366 C 325.132 76.690,334.795 77.447,339.232 81.352 C 340.455 82.429,341.481 82.152,340.299 81.064 C 337.025 78.054,330.560 76.129,323.750 76.135 C 320.358 76.138,317.237 76.602,309.333 78.278 C 302.148 79.802,297.532 78.268,298.483 74.673 C 299.349 71.400,303.443 70.100,305.998 72.287 L 306.701 72.889 306.226 73.130 C 304.213 74.150,304.977 76.615,307.260 76.469 C 308.775 76.373,309.333 75.812,309.333 74.387 C 309.333 70.475,302.445 68.537,297.388 71.027 C 296.432 71.497,294.667 73.009,294.667 73.357 C 294.667 73.652,292.735 73.488,291.635 73.100 C 289.926 72.496,286.528 70.045,286.920 69.699 C 287.010 69.620,288.246 69.425,289.667 69.266 C 294.361 68.741,296.328 67.965,297.183 66.298 C 298.605 63.525,295.459 61.013,290.552 61.003 L 289.186 61.000 289.426 60.542 C 290.020 59.401,289.558 58.144,288.319 57.531 L 287.635 57.193 289.192 56.694 C 301.404 52.783,313.399 54.864,312.969 60.820 C 312.760 63.706,309.241 63.879,308.063 61.061 C 307.731 60.265,307.746 59.722,308.091 60.067 C 309.305 61.281,311.697 60.446,311.446 58.896 C 310.954 55.864,305.333 56.406,305.333 59.485 C 305.333 63.142,310.595 65.887,314.205 64.114 C 317.858 62.321,317.007 57.521,312.657 55.383 C 306.825 52.517,299.746 52.531,288.167 55.429 C 285.452 56.108,284.834 56.206,283.000 56.246 C 281.854 56.271,280.767 56.344,280.583 56.408 C 280.400 56.473,280.536 56.341,280.886 56.116 C 282.571 55.033,282.819 54.454,281.915 53.709 C 280.405 52.464,274.582 51.776,273.681 52.735 M94.683 53.934 C 93.898 54.932,94.036 55.978,95.027 56.535 C 95.944 57.051,96.358 57.913,96.484 59.570 C 96.614 61.295,97.221 61.449,97.659 59.869 C 98.515 56.789,96.149 52.070,94.683 53.934 M283.667 57.846 C 287.402 58.700,286.400 61.697,281.863 63.240 C 279.680 63.982,279.696 63.984,277.119 62.677 C 274.937 61.569,272.582 60.678,271.783 60.657 C 271.283 60.644,272.773 59.975,275.083 59.176 C 278.781 57.898,281.827 57.426,283.667 57.846 M125.945 59.691 C 126.440 59.816,126.944 60.115,127.394 60.553 L 128.083 61.223 127.417 61.432 C 125.607 61.999,123.161 61.269,123.363 60.221 C 123.488 59.571,124.580 59.347,125.945 59.691 M80.912 61.838 C 80.295 62.520,80.367 64.638,81.073 66.577 C 81.406 67.490,81.753 68.764,81.844 69.407 C 82.030 70.720,82.197 71.001,82.630 70.729 C 83.026 70.481,83.078 69.393,82.760 67.995 C 82.616 67.360,82.500 66.087,82.499 65.134 C 82.497 62.222,81.827 60.828,80.912 61.838 M84.500 62.379 C 83.697 62.778,83.417 63.693,83.417 65.917 C 83.417 68.934,84.083 70.751,84.981 70.182 C 85.227 70.026,85.234 69.850,85.074 67.750 C 84.986 66.595,85.030 66.241,85.403 65.104 C 86.151 62.821,85.792 61.736,84.500 62.379 M292.361 62.715 C 296.140 64.564,292.831 67.920,286.711 68.445 L 285.504 68.549 284.294 67.554 C 283.628 67.007,282.575 66.173,281.954 65.701 C 280.965 64.949,280.872 64.833,281.204 64.769 C 284.812 64.079,286.548 63.499,287.503 62.665 C 288.319 61.953,290.855 61.979,292.361 62.715 M77.918 67.498 C 77.095 68.408,77.414 69.799,78.564 70.307 C 79.429 70.690,80.106 71.859,80.305 73.314 C 80.492 74.678,80.944 74.940,81.336 73.910 C 82.327 71.303,79.416 65.843,77.918 67.498 M318.750 70.428 C 317.761 70.690,316.782 70.827,315.875 70.829 C 314.347 70.834,314.011 71.172,314.933 71.776 C 316.256 72.643,324.083 72.048,324.083 71.081 C 324.083 70.046,321.420 69.720,318.750 70.428 M87.733 82.079 C 88.449 86.335,88.451 86.313,87.206 88.713 C 84.794 93.364,81.020 89.516,82.251 83.660 C 82.390 83.003,82.558 82.375,82.626 82.264 C 82.772 82.027,86.873 78.358,87.009 78.343 C 87.060 78.338,87.386 80.019,87.733 82.079 M330.333 82.529 C 329.921 82.617,328.815 82.647,327.875 82.596 C 326.053 82.497,325.710 82.686,326.422 83.398 C 327.268 84.244,334.859 84.712,335.606 83.965 C 336.698 82.874,333.199 81.921,330.333 82.529 M324.140 92.423 C 325.725 92.953,326.252 93.489,328.515 96.879 L 329.653 98.583 326.202 98.936 L 322.750 99.288 321.075 98.492 C 317.372 96.732,316.313 95.067,317.677 93.152 C 318.674 91.752,321.259 91.460,324.140 92.423 M336.544 109.124 C 340.199 111.025,340.360 113.355,336.894 114.184 C 330.316 115.756,327.120 113.266,331.735 110.164 C 334.670 108.191,334.726 108.179,336.544 109.124 M57.012 110.527 C 56.652 111.728,55.293 114.140,53.131 117.417 C 47.787 125.514,45.430 130.984,44.824 136.696 C 44.623 138.582,44.766 141.364,45.109 142.257 C 45.204 142.505,45.168 142.534,44.904 142.422 C 43.225 141.713,41.479 142.568,40.997 144.336 C 40.655 145.590,41.172 150.546,41.928 153.265 C 42.021 153.600,41.977 153.611,40.721 153.548 C 37.322 153.380,36.401 156.147,38.232 161.023 L 38.774 162.464 37.803 162.534 C 35.287 162.716,34.869 165.903,36.753 170.540 C 36.968 171.068,37.108 171.500,37.065 171.500 C 37.022 171.500,36.693 171.350,36.333 171.167 C 33.915 169.933,33.618 172.878,35.673 177.707 C 35.944 178.346,36.167 178.903,36.167 178.946 C 36.167 179.152,32.827 176.152,30.660 174.000 C 23.901 167.285,20.820 161.188,21.662 156.197 C 21.863 155.003,21.711 154.000,21.329 154.000 C 20.750 154.000,20.476 158.035,20.908 160.184 C 22.403 167.610,29.074 176.497,38.205 183.225 C 41.010 185.293,43.070 189.849,41.954 191.517 C 40.018 194.411,33.100 191.106,33.758 187.601 C 33.862 187.044,33.866 187.042,34.347 187.282 C 36.029 188.121,36.741 185.878,35.309 184.248 C 34.226 183.015,32.987 183.873,32.511 186.186 C 31.479 191.207,38.528 197.497,42.753 195.324 C 44.997 194.170,45.171 191.855,43.296 188.083 C 42.730 186.946,42.691 186.802,43.025 187.101 C 43.240 187.294,45.892 189.388,48.917 191.755 C 58.709 199.418,61.520 201.679,65.167 204.825 C 69.497 208.561,79.096 217.084,79.246 217.326 C 79.435 217.632,79.667 217.512,79.667 217.108 C 79.667 216.806,78.452 215.610,74.379 211.900 C 71.471 209.251,67.477 205.589,65.504 203.763 C 59.783 198.470,55.959 195.169,48.500 189.088 C 39.602 181.835,38.804 181.124,37.972 179.720 C 36.415 177.090,35.860 174.667,36.816 174.667 C 37.512 174.667,43.871 180.080,44.984 181.619 C 45.746 182.673,45.750 182.676,45.803 182.166 C 45.941 180.826,44.550 178.420,42.742 176.869 C 38.400 173.146,36.244 168.108,38.299 166.491 C 39.135 165.833,42.572 167.306,44.142 168.995 C 45.376 170.322,45.786 173.069,44.630 172.260 C 43.523 171.484,42.174 172.591,42.452 174.047 C 42.706 175.373,45.001 176.024,45.978 175.048 C 48.297 172.729,45.805 166.211,41.691 163.833 C 39.548 162.595,38.589 158.705,40.128 157.494 C 41.939 156.070,47.500 159.243,47.500 161.700 L 47.500 162.334 46.877 162.000 C 45.202 161.103,43.969 162.571,45.044 164.184 C 46.512 166.387,48.840 165.095,48.828 162.083 C 48.818 159.621,46.123 155.445,43.898 154.445 L 43.220 154.140 42.776 151.599 C 42.150 148.007,42.192 146.975,42.993 146.173 C 44.515 144.652,48.392 148.301,50.598 153.331 L 51.145 154.578 51.334 154.081 C 51.491 153.670,51.458 153.366,51.148 152.333 C 49.578 147.115,52.710 145.202,57.110 148.691 C 60.616 151.471,63.861 156.756,72.513 173.778 C 74.108 176.916,74.333 177.231,74.333 176.326 C 74.333 175.577,67.986 162.378,65.056 157.036 C 58.097 144.347,51.519 139.865,49.456 146.409 L 49.062 147.658 48.681 146.870 C 48.191 145.859,47.011 144.207,46.378 143.646 C 45.293 142.686,45.658 137.773,47.131 133.503 L 47.447 132.589 47.565 133.477 C 48.358 139.457,52.639 143.067,55.521 140.185 C 56.584 139.122,57.081 135.041,56.411 132.875 C 56.301 132.520,56.339 132.500,57.154 132.500 C 59.289 132.500,60.280 131.209,60.740 127.833 L 60.955 126.250 62.540 129.500 C 64.235 132.979,66.247 137.416,70.171 146.333 C 74.678 156.576,83.859 175.607,84.194 175.400 C 84.569 175.168,84.171 174.077,82.316 170.248 C 76.985 159.247,73.911 152.377,67.699 137.583 C 65.775 133.000,62.843 126.038,61.183 122.113 L 58.166 114.976 57.930 112.863 C 57.604 109.943,57.367 109.340,57.012 110.527 M58.173 120.264 C 59.868 123.805,59.759 128.470,57.965 129.142 C 55.774 129.963,53.806 127.426,53.162 122.951 L 52.999 121.818 54.047 120.359 C 54.624 119.556,55.419 118.277,55.815 117.516 L 56.535 116.133 56.937 117.327 C 57.158 117.983,57.714 119.305,58.173 120.264 M345.758 117.469 C 345.845 117.544,346.254 117.746,346.667 117.919 C 350.355 119.459,352.018 121.976,354.574 129.890 C 356.461 135.733,357.620 137.186,360.369 137.155 C 361.849 137.138,362.239 136.958,361.363 136.695 C 359.719 136.203,358.472 134.253,357.043 129.943 C 354.873 123.395,352.749 120.136,349.561 118.460 C 348.173 117.731,345.144 116.941,345.758 117.469 M52.660 128.403 C 53.131 129.765,53.712 130.703,54.498 131.376 C 55.452 132.192,55.902 135.394,55.273 136.880 C 54.290 139.203,51.174 138.079,49.735 134.883 C 48.082 131.211,48.255 129.840,50.949 125.278 L 51.917 123.639 52.117 125.528 C 52.228 126.567,52.472 127.861,52.660 128.403 M340.553 124.511 C 344.285 125.271,347.735 127.438,348.704 129.630 L 349.029 130.364 348.647 130.771 C 347.212 132.299,341.334 131.887,340.765 130.219 C 340.202 128.567,338.735 126.369,337.198 124.875 L 336.469 124.167 337.667 124.167 C 338.325 124.167,339.624 124.322,340.553 124.511 M356.911 126.843 C 356.343 127.762,358.813 129.184,363.420 130.589 C 365.700 131.284,366.463 130.895,365.335 129.611 C 364.588 128.760,363.626 128.363,361.391 127.985 C 360.131 127.772,359.033 127.473,358.356 127.159 C 357.181 126.613,357.068 126.589,356.911 126.843 M33.679 132.235 C 32.751 133.353,33.889 136.405,36.033 138.549 C 37.381 139.897,38.402 139.132,37.154 137.710 C 36.416 136.869,35.885 135.635,35.666 134.250 C 35.367 132.361,34.394 131.374,33.679 132.235 M30.268 133.264 C 29.855 134.340,30.706 136.064,32.407 137.595 C 33.113 138.230,34.061 139.219,34.515 139.792 C 35.334 140.827,35.756 141.062,35.940 140.583 C 36.119 140.116,35.838 139.535,34.843 138.317 C 34.297 137.649,33.465 136.406,32.993 135.555 C 31.839 133.472,30.591 132.422,30.268 133.264 M296.505 133.412 C 296.528 134.153,297.489 134.374,310.667 136.665 C 314.929 137.405,320.442 138.420,322.917 138.919 C 328.297 140.004,334.320 141.016,342.333 142.181 C 347.737 142.967,348.357 143.090,349.481 143.603 C 353.410 145.398,356.713 148.741,356.455 150.663 C 355.963 154.333,349.236 153.790,347.487 149.940 C 347.030 148.932,347.059 148.872,347.958 148.956 C 349.779 149.124,350.299 146.799,348.684 145.714 C 346.793 144.444,344.958 146.043,345.484 148.500 C 346.179 151.740,349.374 154.486,353.568 155.448 C 354.840 155.739,354.911 155.782,355.619 156.667 C 359.217 161.169,361.540 167.013,361.681 171.917 C 361.748 174.246,361.747 174.247,360.848 172.552 C 355.427 162.343,345.482 158.789,342.048 165.835 C 337.982 174.177,342.385 187.186,350.027 189.407 C 355.196 190.910,358.046 186.911,355.465 181.775 C 353.252 177.369,347.496 178.470,348.864 183.038 C 349.344 184.639,350.821 185.205,351.846 184.179 C 352.681 183.345,352.327 182.095,351.111 181.584 L 350.611 181.374 351.048 180.937 C 352.742 179.243,355.418 182.735,354.596 185.565 C 353.659 188.787,350.615 188.880,347.241 185.788 C 344.391 183.176,343.166 180.339,343.167 176.348 C 343.170 166.736,347.852 162.179,353.833 165.966 C 357.525 168.303,361.912 176.146,361.281 179.278 C 359.733 186.961,361.828 193.737,367.024 197.852 C 367.894 198.541,367.902 198.505,367.298 196.604 C 366.837 195.155,366.710 194.926,366.181 194.589 C 363.153 192.660,362.514 190.094,363.585 184.167 C 364.049 181.601,364.267 179.476,364.428 175.963 C 364.560 173.078,364.239 173.145,367.217 175.381 C 371.957 178.940,377.280 185.470,379.003 189.840 C 380.414 193.420,379.015 197.500,376.376 197.500 C 373.721 197.500,372.630 192.650,374.976 191.276 L 375.500 190.969 375.500 191.912 C 375.500 194.323,377.834 195.491,378.758 193.543 C 379.263 192.479,378.717 191.026,377.350 189.797 C 374.957 187.646,372.499 188.853,371.831 192.508 C 370.905 197.579,378.408 202.782,381.163 198.978 C 385.069 193.587,379.057 182.973,366.590 173.248 C 364.376 171.521,364.233 171.360,364.092 170.414 C 363.583 167.023,360.565 160.989,357.430 157.095 C 356.304 155.697,356.309 155.791,357.355 155.542 C 361.863 154.472,359.590 148.503,353.002 144.110 L 352.088 143.500 353.700 143.500 C 355.870 143.500,356.667 143.157,356.667 142.222 C 356.667 140.760,353.073 137.049,350.217 135.560 C 348.937 134.893,348.659 134.955,349.593 135.701 C 358.186 142.564,355.430 142.651,316.583 136.742 C 312.030 136.050,302.020 134.335,298.792 133.695 C 297.414 133.422,296.502 133.309,296.505 133.412 M30.421 139.662 C 30.072 140.047,30.164 141.087,30.606 141.762 C 30.841 142.120,30.994 142.167,31.923 142.167 C 33.150 142.167,33.977 142.672,35.000 144.049 C 35.726 145.027,36.167 145.091,36.167 144.219 C 36.167 141.811,31.689 138.260,30.421 139.662 M367.508 148.769 C 366.645 149.495,364.960 149.603,363.840 149.003 C 362.707 148.397,362.284 149.160,363.292 149.993 C 365.228 151.594,370.177 151.575,370.161 149.966 C 370.148 148.598,368.562 147.882,367.508 148.769 M365.278 151.944 C 364.734 152.488,365.483 153.062,367.462 153.619 C 368.262 153.844,369.720 154.401,370.702 154.857 C 372.847 155.854,373.876 155.939,373.969 155.127 C 374.090 154.076,372.310 153.136,369.500 152.767 C 368.446 152.629,367.140 152.362,366.599 152.174 C 365.510 151.797,365.438 151.785,365.278 151.944 M364.875 154.110 C 364.324 154.333,364.879 155.333,365.554 155.333 C 366.269 155.334,368.000 156.314,368.848 157.199 C 370.661 159.089,372.095 159.196,371.761 157.416 C 371.455 155.786,366.554 153.433,364.875 154.110 M22.813 173.817 C 21.460 174.912,24.218 178.910,27.075 179.997 C 28.164 180.411,28.411 179.267,27.375 178.604 C 26.253 177.887,25.378 176.744,24.832 175.284 C 24.290 173.836,23.499 173.261,22.813 173.817 M19.611 175.611 C 18.825 176.397,20.303 178.271,22.838 179.704 C 23.712 180.197,24.825 180.916,25.312 181.300 C 26.326 182.102,26.667 182.177,26.667 181.597 C 26.667 180.933,26.515 180.718,25.527 179.976 C 25.008 179.586,23.792 178.499,22.825 177.559 C 20.951 175.738,20.038 175.184,19.611 175.611 M21.242 181.906 C 20.541 182.975,21.894 184.619,23.111 184.179 C 24.299 183.750,25.546 184.106,26.791 185.231 C 27.554 185.921,27.767 185.971,27.918 185.495 C 28.509 183.633,22.298 180.294,21.242 181.906 M319.340 199.098 C 319.335 199.509,319.744 200.130,321.390 202.207 C 324.799 206.507,329.112 212.322,332.424 217.083 C 338.595 225.956,339.783 227.590,342.822 231.393 C 344.517 233.515,347.913 237.782,350.368 240.877 L 354.832 246.505 355.083 247.941 C 355.373 249.607,355.409 251.612,355.160 252.267 L 354.987 252.723 354.230 251.987 C 352.552 250.354,349.273 245.733,348.217 243.512 C 347.498 242.001,347.521 242.031,347.327 242.338 C 346.580 243.518,347.779 247.522,349.712 250.304 C 352.528 254.358,353.206 257.553,351.558 259.000 C 349.473 260.831,344.742 255.787,345.839 252.903 C 345.986 252.515,346.039 252.486,346.214 252.701 C 346.894 253.540,348.204 253.770,348.766 253.149 C 349.871 251.928,348.242 249.502,346.314 249.501 C 342.758 249.498,343.822 257.391,347.917 261.388 L 348.917 262.364 348.917 264.724 C 348.917 269.203,347.926 270.315,345.174 268.921 C 342.585 267.609,340.878 264.912,341.577 263.239 L 341.821 262.655 342.459 263.293 C 343.718 264.551,344.792 264.617,345.407 263.475 C 346.265 261.882,344.158 259.570,342.242 260.002 C 338.952 260.744,339.562 267.885,343.204 271.258 L 344.250 272.227 344.208 273.822 C 343.961 283.271,338.866 280.123,337.079 269.417 L 336.968 268.750 336.615 269.417 C 336.359 269.900,336.233 270.526,336.158 271.688 C 335.935 275.154,334.372 276.418,332.000 275.050 C 327.190 272.277,325.284 266.967,322.835 249.527 C 322.573 247.662,322.317 246.095,322.267 246.044 C 321.346 245.124,323.388 262.625,324.844 268.132 C 326.097 272.871,328.765 276.908,331.831 278.702 C 334.228 280.105,335.644 279.585,336.735 276.902 L 337.133 275.924 337.328 276.670 C 337.931 278.974,338.469 280.386,339.195 281.570 C 339.984 282.855,339.345 285.661,337.577 288.677 C 336.673 290.220,336.552 290.189,336.517 288.406 C 336.430 283.979,334.461 280.800,331.808 280.800 C 329.219 280.800,328.000 282.969,328.000 287.578 L 328.000 289.673 327.340 289.337 C 325.174 288.232,323.489 289.854,322.851 293.657 L 322.568 295.339 321.430 292.461 C 318.555 285.190,315.948 277.421,313.754 269.583 C 310.901 259.395,306.246 243.357,306.097 243.208 C 306.065 243.176,305.962 243.370,305.868 243.639 C 305.723 244.056,305.918 244.887,307.189 249.272 C 309.165 256.085,310.798 262.071,312.746 269.650 C 315.620 280.828,318.783 291.219,322.103 300.395 C 323.115 303.192,323.227 304.284,322.753 306.759 C 321.969 310.859,320.641 309.399,317.666 301.167 C 314.220 291.633,311.485 282.379,306.065 261.917 C 304.135 254.633,304.360 255.318,304.075 255.857 C 303.860 256.263,304.118 257.423,307.407 270.857 C 311.410 287.206,313.248 293.839,316.614 304.071 L 317.707 307.392 317.622 309.738 C 317.492 313.354,316.811 314.810,315.000 315.353 C 312.312 316.158,309.591 311.302,311.167 308.512 C 311.602 307.742,312.000 307.451,312.000 307.903 C 312.000 309.009,314.210 309.211,314.756 308.155 C 315.647 306.432,314.600 304.535,312.851 304.703 C 309.450 305.029,307.799 311.466,309.944 316.037 L 310.553 317.335 310.186 318.709 C 309.134 322.644,307.039 324.542,305.084 323.333 C 303.464 322.333,302.403 318.733,303.060 316.472 C 303.423 315.223,303.833 314.862,303.833 315.790 C 303.833 318.008,306.746 317.921,306.959 315.697 C 307.266 312.511,303.799 311.774,301.982 314.639 C 300.636 316.760,300.271 320.455,301.144 323.118 L 301.537 324.318 301.171 325.534 C 300.400 328.090,299.191 330.173,298.607 329.949 C 297.681 329.593,296.701 325.406,296.533 321.083 L 296.417 318.083 295.458 319.884 C 294.350 321.966,294.323 322.185,294.847 324.833 C 295.654 328.908,293.857 334.288,291.340 335.330 C 289.141 336.242,287.059 329.951,288.694 327.333 L 289.058 326.750 289.237 327.444 C 289.866 329.875,292.331 328.948,292.333 326.279 C 292.334 324.034,290.229 323.643,288.245 325.519 C 286.070 327.577,285.307 330.879,286.173 334.491 L 286.510 335.898 285.843 337.289 C 284.570 339.942,283.347 341.368,282.854 340.774 C 281.081 338.638,280.489 325.166,281.408 307.833 C 281.842 299.639,282.057 294.001,281.939 293.884 C 281.415 293.360,281.200 294.427,281.010 298.500 C 280.828 302.400,280.460 307.814,279.924 314.500 C 279.539 319.309,279.334 323.639,279.334 326.985 L 279.333 330.053 278.637 330.955 C 277.114 332.929,275.126 334.252,271.441 335.743 C 266.898 337.581,263.839 339.471,261.331 341.990 C 258.918 344.414,257.732 347.088,260.042 344.896 C 261.008 343.979,263.273 342.500,263.711 342.500 C 263.754 342.500,263.424 343.349,262.978 344.387 C 259.130 353.329,263.736 356.672,269.662 349.239 L 270.600 348.062 270.904 348.465 C 272.911 351.125,277.218 347.554,279.582 341.268 L 279.952 340.286 280.067 341.306 C 280.646 346.425,282.872 345.609,286.211 339.055 L 287.074 337.360 287.415 337.967 C 288.936 340.680,292.320 339.337,294.262 335.250 C 294.940 333.822,295.817 331.152,295.847 330.424 C 295.855 330.237,296.000 330.695,296.169 331.443 C 296.659 333.613,297.184 334.324,298.122 334.089 L 298.545 333.982 298.453 336.949 C 298.163 346.314,294.061 354.289,289.279 354.782 C 285.619 355.160,285.154 349.747,288.788 349.065 C 290.106 348.818,290.932 349.692,289.903 350.246 C 287.926 351.310,288.032 353.667,290.057 353.667 C 291.660 353.667,293.167 352.014,293.167 350.257 C 293.167 344.609,284.705 347.000,284.220 352.785 C 283.868 356.986,287.028 359.356,290.618 357.583 C 295.941 354.952,299.653 346.026,299.941 335.167 L 300.031 331.750 300.831 329.833 C 301.271 328.779,301.799 327.448,302.004 326.875 C 302.419 325.720,302.476 325.677,302.933 326.190 C 304.365 327.801,307.206 327.372,308.846 325.297 C 309.921 323.937,311.667 320.002,311.667 318.939 C 311.667 318.588,311.791 318.596,312.583 319.000 C 314.086 319.766,316.181 319.186,317.140 317.738 C 317.966 316.490,318.998 312.712,318.999 310.924 C 319.000 310.463,319.035 310.490,319.543 311.341 C 321.392 314.435,322.895 312.772,323.566 306.890 L 323.772 305.083 323.970 306.180 C 324.078 306.784,324.168 308.059,324.169 309.014 C 324.171 309.969,324.244 310.862,324.333 311.000 C 324.465 311.204,324.495 311.184,324.497 310.892 C 324.505 309.837,325.975 307.580,328.450 304.823 C 336.964 295.339,340.500 289.178,340.500 283.827 L 340.500 283.167 341.545 283.167 C 344.115 283.167,345.333 280.375,345.333 274.481 L 345.333 272.703 345.952 273.018 C 348.843 274.492,351.284 270.550,350.694 265.362 C 350.591 264.454,350.459 263.587,350.401 263.435 C 350.310 263.199,350.358 263.184,350.742 263.330 C 353.245 264.282,354.083 263.085,354.083 258.560 L 354.083 255.370 354.709 255.935 C 355.538 256.684,355.940 256.669,356.300 255.875 C 356.692 255.010,356.689 250.574,356.296 249.001 C 356.148 248.406,356.040 247.904,356.058 247.887 C 356.120 247.825,358.497 251.290,359.916 253.510 C 364.978 261.431,367.564 270.427,365.802 273.989 C 365.366 274.870,365.381 275.500,365.836 275.500 C 366.047 275.500,366.750 274.094,366.996 273.182 C 368.961 265.886,364.339 254.114,355.199 243.135 C 353.628 241.248,353.682 241.360,352.896 238.372 C 351.719 233.897,352.266 232.480,355.083 232.709 C 357.854 232.934,359.903 235.073,359.912 237.750 C 359.918 239.477,359.806 239.783,359.298 239.427 C 357.675 238.291,356.120 240.820,357.557 242.257 C 358.725 243.425,359.878 243.128,360.742 241.435 C 363.082 236.850,358.812 229.422,353.833 229.418 C 350.447 229.415,349.361 232.243,350.896 237.070 C 351.253 238.193,351.272 238.342,351.018 238.070 C 350.632 237.655,344.560 230.501,342.401 227.917 C 339.983 225.023,337.312 221.676,336.171 220.110 C 332.061 214.468,330.907 212.920,328.540 209.869 C 325.992 206.585,321.209 200.679,319.939 199.250 L 319.347 198.583 319.340 199.098 M30.667 222.780 C 30.667 223.552,31.778 225.481,32.317 225.645 C 34.738 226.382,35.712 229.217,36.247 237.083 C 36.555 241.616,36.873 244.246,37.482 247.275 C 37.999 249.854,38.195 249.696,35.782 248.652 C 25.288 244.111,17.978 235.056,21.703 231.212 C 23.444 229.416,26.190 230.986,26.190 233.776 C 26.190 235.527,24.948 236.345,24.885 234.635 C 24.809 232.578,22.446 231.894,21.833 233.750 C 20.772 236.967,26.137 239.426,27.707 236.443 C 30.105 231.887,23.537 225.427,19.360 228.234 C 14.462 231.525,19.764 240.691,30.243 247.050 C 32.250 248.268,37.862 251.158,38.249 251.173 C 38.341 251.177,38.922 252.208,39.539 253.465 C 40.782 255.998,42.196 258.077,44.030 260.070 C 44.872 260.986,45.172 261.415,45.006 261.470 C 41.351 262.688,44.552 268.470,50.699 271.754 L 51.692 272.285 50.294 272.372 C 45.972 272.642,46.927 274.719,53.033 278.329 L 54.653 279.286 54.042 279.685 C 51.428 281.390,53.289 285.869,57.529 288.080 L 58.801 288.744 58.448 289.239 C 56.813 291.536,59.506 294.768,65.074 297.191 C 66.078 297.628,66.790 298.018,66.658 298.058 C 64.042 298.842,63.403 299.641,64.542 300.706 L 65.083 301.213 64.083 300.708 C 60.574 298.935,57.906 295.805,55.060 290.120 C 52.678 285.362,50.623 282.375,49.029 281.352 C 46.313 279.609,43.024 279.883,44.842 281.701 C 45.334 282.193,45.391 282.207,46.513 282.127 L 47.675 282.044 48.394 282.843 C 49.205 283.745,49.974 285.144,51.000 287.583 C 54.568 296.067,60.104 301.728,64.583 301.473 C 65.244 301.435,65.573 301.518,66.171 301.873 C 67.058 302.400,69.729 303.652,70.917 304.098 L 71.750 304.411 71.083 304.533 C 70.717 304.601,69.835 304.674,69.125 304.697 C 68.415 304.720,67.833 304.767,67.833 304.803 C 67.833 304.997,70.806 309.292,71.776 310.500 C 75.963 315.713,82.534 320.471,87.892 322.170 C 88.593 322.392,89.167 322.625,89.167 322.686 C 89.167 322.821,86.706 323.266,85.112 323.420 C 83.739 323.552,83.868 323.982,85.389 324.346 C 87.315 324.808,88.342 325.478,91.500 328.332 C 100.098 336.103,104.582 338.585,111.695 339.511 L 113.306 339.721 112.820 340.582 C 112.151 341.767,112.158 342.632,112.842 343.316 C 113.326 343.801,113.587 343.907,115.333 344.336 C 115.746 344.437,117.744 344.563,119.774 344.616 L 123.464 344.712 123.067 345.564 C 121.546 348.830,124.101 350.784,129.417 350.423 C 130.333 350.361,131.233 350.274,131.417 350.231 C 131.727 350.158,131.750 350.237,131.750 351.368 C 131.750 354.356,135.437 355.404,140.649 353.897 C 141.009 353.793,140.979 353.869,140.358 354.656 C 138.860 356.551,140.089 357.449,143.338 356.833 C 143.823 356.740,144.244 356.689,144.274 356.718 C 144.365 356.809,139.524 360.346,137.112 361.950 C 130.909 366.075,125.634 367.373,121.790 365.718 C 121.150 365.442,120.333 365.594,120.333 365.989 C 120.333 366.276,123.012 367.010,124.614 367.161 C 130.878 367.754,137.743 364.737,148.139 356.823 C 151.578 354.205,151.677 354.147,154.083 353.347 C 160.478 351.221,163.876 352.726,162.408 357.034 C 161.687 359.149,159.148 360.524,157.074 359.921 C 156.032 359.618,156.065 359.674,156.499 358.962 C 157.596 357.164,154.717 356.091,153.209 357.736 C 151.639 359.450,153.341 361.489,156.348 361.496 C 161.723 361.510,166.540 357.501,166.114 353.369 C 165.760 349.938,161.469 349.537,154.083 352.245 C 153.647 352.405,154.140 351.935,161.083 345.566 C 172.396 335.190,183.480 325.433,190.583 319.596 C 192.781 317.790,192.890 317.667,192.271 317.667 C 191.689 317.667,189.466 319.374,184.333 323.763 C 181.996 325.762,177.496 329.459,174.333 331.977 C 167.149 337.700,163.841 340.447,159.220 344.532 C 149.293 353.307,146.687 355.167,144.318 355.167 C 143.211 355.167,143.430 354.666,145.375 352.758 C 147.273 350.895,149.278 349.280,151.167 348.091 L 152.417 347.304 151.000 347.370 C 149.154 347.457,148.166 347.908,145.986 349.662 C 142.270 352.651,137.290 353.730,135.822 351.864 C 134.302 349.932,139.113 344.997,141.822 345.708 L 142.394 345.859 141.739 346.226 C 140.543 346.897,140.410 348.178,141.451 348.997 C 142.753 350.021,145.200 348.541,145.200 346.730 C 145.200 342.791,136.747 343.816,132.985 348.210 C 132.138 349.199,128.352 349.044,127.285 347.977 C 125.783 346.475,128.542 342.344,131.346 341.895 C 131.998 341.791,132.045 341.807,131.925 342.099 C 131.644 342.788,131.651 342.983,131.987 343.640 C 132.393 344.436,132.751 344.667,133.581 344.667 C 136.001 344.667,136.714 341.489,134.493 340.600 C 132.433 339.776,127.405 341.019,125.428 342.841 L 124.657 343.551 122.454 343.449 C 118.105 343.249,116.072 342.547,116.507 341.396 C 117.076 339.890,120.316 338.380,125.033 337.423 C 126.136 337.199,127.071 336.984,127.111 336.945 C 127.316 336.740,125.643 336.036,124.734 335.945 C 121.011 335.573,120.031 332.785,122.636 329.972 C 124.908 327.518,125.410 327.301,147.500 319.227 C 150.112 318.272,152.362 317.449,152.500 317.399 C 152.687 317.331,152.634 317.246,152.294 317.066 C 151.866 316.840,151.600 316.901,147.961 318.064 C 145.828 318.745,141.496 320.106,138.333 321.088 C 126.474 324.771,122.491 326.516,119.748 329.233 C 116.412 332.536,116.930 335.620,120.973 336.527 L 121.862 336.726 120.334 337.035 C 118.709 337.363,116.118 338.147,114.988 338.653 C 113.890 339.145,109.204 337.945,106.076 336.371 L 104.775 335.717 106.429 335.598 C 112.014 335.197,114.844 333.343,114.140 330.546 C 113.714 328.854,111.375 327.617,107.292 326.924 C 106.667 326.818,106.667 326.818,106.667 325.984 C 106.667 323.844,104.460 322.389,100.300 321.789 L 98.850 321.580 104.384 319.598 C 107.427 318.509,112.242 316.760,115.083 315.713 C 124.190 312.357,131.825 309.888,141.250 307.252 C 143.725 306.560,145.825 305.970,145.916 305.942 C 146.008 305.913,145.920 305.802,145.721 305.696 C 145.433 305.542,145.146 305.568,144.305 305.825 C 143.725 306.003,140.550 306.869,137.250 307.750 C 127.543 310.341,124.049 311.389,113.000 315.026 C 108.554 316.489,101.880 318.666,98.169 319.864 L 91.421 322.043 90.002 321.584 C 88.548 321.113,86.029 319.995,85.014 319.371 L 84.445 319.020 86.264 319.112 C 91.963 319.400,95.369 317.176,93.834 314.168 C 93.173 312.872,89.111 310.667,87.383 310.667 C 87.189 310.667,87.165 310.490,87.258 309.743 C 87.512 307.712,86.135 306.141,83.171 305.080 C 82.779 304.939,82.667 304.838,82.833 304.777 C 83.299 304.606,100.711 302.506,106.583 301.914 C 115.540 301.010,124.927 299.900,131.987 298.910 C 132.943 298.776,133.749 298.667,133.779 298.667 C 133.809 298.667,133.833 298.603,133.833 298.525 C 133.833 298.127,133.037 298.084,130.891 298.366 C 125.561 299.066,112.544 300.249,103.750 300.832 C 95.432 301.383,83.949 302.543,76.782 303.555 L 74.147 303.928 72.769 303.479 C 70.169 302.631,68.000 301.471,68.000 300.927 C 68.000 300.053,70.061 299.698,82.070 298.504 C 93.372 297.380,93.154 297.404,110.500 295.407 C 124.162 293.834,123.501 293.930,123.141 293.570 C 122.917 293.345,122.466 293.364,118.986 293.741 C 110.879 294.619,103.438 295.216,91.750 295.925 C 87.900 296.159,83.475 296.457,81.917 296.586 L 79.083 296.822 78.083 296.353 C 75.619 295.196,74.333 293.545,72.182 288.773 C 69.661 283.183,65.567 278.615,61.218 276.543 C 59.395 275.674,59.200 275.901,60.763 277.074 C 62.233 278.176,64.419 280.338,64.890 281.155 L 65.197 281.686 64.000 281.083 C 62.184 280.169,59.539 279.348,57.456 279.052 C 55.017 278.706,53.138 277.743,51.762 276.135 C 50.500 274.661,51.272 274.298,55.667 274.299 C 59.854 274.299,73.811 275.191,86.167 276.247 C 96.907 277.165,109.493 278.062,109.636 277.920 C 109.881 277.674,109.213 277.333,108.488 277.333 C 106.329 277.333,87.237 275.412,79.500 274.416 C 77.499 274.159,68.586 273.328,59.750 272.577 C 53.892 272.078,53.151 271.894,50.799 270.350 C 46.638 267.620,46.030 263.941,49.651 263.398 C 52.592 262.957,57.372 266.029,55.362 267.069 C 53.847 267.852,54.049 269.443,55.745 270.090 C 57.360 270.707,58.842 269.597,58.830 267.781 C 58.809 264.780,51.805 260.592,47.249 260.857 C 45.028 260.985,40.599 253.810,40.085 249.250 C 40.023 248.700,39.931 248.100,39.881 247.917 C 39.830 247.733,40.154 248.071,40.600 248.667 C 48.578 259.318,62.342 260.130,62.332 249.950 C 62.325 242.447,53.753 234.010,48.407 236.243 C 44.395 237.919,45.904 246.219,50.106 245.589 C 52.751 245.192,51.866 241.990,49.172 242.216 L 48.025 242.312 47.846 241.798 C 47.079 239.597,48.997 237.487,51.570 237.700 C 57.650 238.205,61.617 249.233,57.313 253.668 C 53.209 257.896,43.013 252.711,39.940 244.833 C 39.599 243.959,39.468 243.154,39.259 240.667 C 38.594 232.727,37.229 228.779,33.905 225.180 C 32.580 223.744,30.667 222.327,30.667 222.780 M364.929 240.462 C 364.310 242.412,369.598 246.502,370.967 245.133 C 371.925 244.175,370.688 242.359,369.226 242.578 C 368.216 242.730,367.216 242.228,366.213 241.066 C 365.397 240.120,365.084 239.973,364.929 240.462 M365.411 244.343 C 365.179 244.718,365.554 245.395,366.650 246.576 C 367.276 247.253,368.149 248.356,368.588 249.028 C 369.551 250.500,370.094 251.115,370.723 251.444 C 372.575 252.410,371.625 249.054,369.621 247.546 C 369.050 247.117,368.003 246.181,367.293 245.466 C 366.047 244.212,365.642 243.969,365.411 244.343 M363.833 246.327 C 363.833 246.679,364.019 247.004,364.481 247.462 C 365.267 248.240,365.925 249.495,366.228 250.793 C 366.821 253.336,368.612 253.905,368.569 251.537 C 368.526 249.147,363.833 243.984,363.833 246.327 M32.367 260.867 C 30.950 262.283,35.139 264.670,38.687 264.468 C 40.190 264.382,39.992 263.167,38.474 263.167 C 37.552 263.167,36.198 262.601,35.257 261.823 C 33.898 260.699,32.874 260.360,32.367 260.867 M30.625 264.013 C 29.098 264.903,31.693 266.173,35.417 266.358 C 36.883 266.432,38.364 266.539,38.707 266.597 C 39.411 266.717,39.712 266.372,39.317 265.897 C 39.004 265.520,38.521 265.368,37.046 265.181 C 36.333 265.091,34.939 264.750,33.949 264.425 C 32.123 263.825,31.154 263.705,30.625 264.013 M36.721 267.674 C 34.663 268.081,34.101 269.303,35.544 270.236 C 36.374 270.773,36.736 270.733,37.568 270.013 C 38.651 269.076,39.300 268.945,41.375 269.242 C 42.277 269.371,42.333 269.359,42.333 269.034 C 42.333 267.956,39.172 267.190,36.721 267.674 M349.278 280.611 C 348.135 281.754,351.500 286.667,353.425 286.667 C 354.852 286.667,354.804 283.978,353.373 283.748 C 353.030 283.693,352.563 283.608,352.333 283.560 C 351.742 283.436,350.595 282.176,350.248 281.269 C 349.974 280.549,349.596 280.293,349.278 280.611 M62.750 281.910 C 63.300 282.052,64.310 282.448,64.995 282.792 L 66.239 283.417 67.683 286.167 C 68.476 287.679,69.116 288.930,69.103 288.946 C 69.091 288.962,68.313 288.759,67.376 288.496 C 64.963 287.819,62.640 287.551,61.317 287.797 L 60.277 287.990 59.264 287.377 C 53.828 284.086,56.276 280.248,62.750 281.910 M348.729 284.578 C 348.537 285.078,348.806 285.979,349.489 287.129 C 349.863 287.758,350.459 289.073,350.814 290.052 C 351.741 292.603,352.399 293.401,353.098 292.821 C 353.827 292.216,353.077 289.895,351.495 287.854 C 350.928 287.122,350.229 286.051,349.940 285.472 C 349.417 284.422,348.927 284.061,348.729 284.578 M332.630 285.096 C 335.516 286.535,336.382 290.925,334.270 293.415 C 333.773 294.001,332.890 295.120,332.308 295.901 L 331.250 297.320 331.130 296.119 C 330.904 293.855,330.271 291.936,329.459 291.049 C 329.153 290.715,329.130 290.526,329.212 289.049 C 329.420 285.274,330.494 284.032,332.630 285.096 M346.778 285.778 C 346.557 285.999,346.676 286.439,347.283 287.636 C 347.865 288.784,347.907 288.971,347.992 290.819 C 348.090 292.926,348.243 293.333,348.937 293.333 C 349.479 293.333,349.958 292.809,350.098 292.064 C 350.522 289.806,347.835 284.720,346.778 285.778 M43.500 288.901 C 43.500 289.375,44.682 290.659,45.521 291.097 C 45.922 291.306,46.682 291.424,48.167 291.507 C 49.313 291.570,50.461 291.707,50.719 291.811 C 51.484 292.119,52.167 292.056,52.167 291.678 C 52.167 291.024,50.868 290.380,49.083 290.150 C 47.774 289.981,46.141 289.482,44.964 288.894 C 43.927 288.375,43.500 288.377,43.500 288.901 M69.201 290.198 C 69.901 290.393,70.075 290.547,70.825 291.637 C 72.101 293.491,73.281 294.769,74.712 295.848 C 76.221 296.984,76.334 296.892,73.098 297.178 C 65.369 297.863,57.706 292.224,63.533 290.139 C 64.558 289.772,67.797 289.805,69.201 290.198 M327.100 293.138 C 328.373 294.060,329.493 296.042,329.834 297.976 C 330.056 299.232,329.896 299.552,328.104 301.456 C 327.520 302.076,326.818 302.938,326.544 303.372 L 326.046 304.160 325.505 302.705 C 323.902 298.391,323.931 298.497,323.929 296.917 C 323.924 293.836,325.490 291.971,327.100 293.138 M267.129 293.570 C 266.916 293.727,266.603 294.991,265.909 298.515 C 264.330 306.521,262.669 313.620,259.419 326.251 C 258.564 329.574,256.816 337.443,255.829 342.417 C 254.128 350.986,250.283 357.167,246.653 357.167 C 244.352 357.167,244.322 351.884,246.608 349.341 C 247.494 348.356,247.559 348.338,247.836 349.007 C 248.772 351.266,251.719 349.392,251.101 346.930 C 250.915 346.186,249.483 345.690,248.379 345.988 C 245.642 346.725,242.342 351.886,242.335 355.443 C 242.331 357.135,236.080 360.769,232.586 361.111 C 231.445 361.223,231.420 361.275,233.167 359.902 C 240.974 353.764,243.406 346.620,239.140 342.354 C 233.708 336.922,220.805 342.198,220.745 349.875 L 220.734 351.334 219.534 352.074 C 217.818 353.131,216.508 354.174,214.637 355.970 L 213.000 357.541 213.000 356.889 C 213.000 353.045,207.420 353.146,202.262 357.083 C 201.841 357.404,201.457 357.667,201.408 357.667 C 201.303 357.667,202.579 355.223,206.802 347.333 C 213.859 334.149,216.199 330.145,223.162 319.339 C 225.367 315.918,225.317 316.017,224.754 316.125 C 223.625 316.341,210.515 337.027,203.510 349.644 C 201.020 354.128,198.128 359.103,196.231 362.167 L 195.250 363.750 194.583 363.696 C 191.113 363.413,183.326 366.224,182.702 367.984 C 182.579 368.333,184.951 367.705,185.637 367.208 C 187.593 365.790,193.108 365.375,197.637 366.306 L 198.191 366.419 197.323 367.585 C 192.608 373.911,185.616 378.682,181.000 378.724 C 176.571 378.764,174.239 374.700,177.723 373.013 C 179.491 372.157,182.333 373.106,182.333 374.552 L 182.333 374.891 181.958 374.551 C 180.456 373.187,177.580 375.115,178.514 376.860 C 179.698 379.072,184.380 377.053,184.359 374.340 C 184.321 369.461,175.776 369.845,173.439 374.830 C 170.841 380.371,177.001 383.181,184.260 379.766 L 185.437 379.213 185.842 379.541 C 190.270 383.126,196.539 379.353,203.448 368.943 L 204.682 367.083 206.549 367.140 C 209.691 367.235,211.527 366.866,214.783 365.484 C 217.435 364.358,217.842 364.300,223.417 364.244 C 228.001 364.198,231.150 363.959,232.398 363.563 C 233.209 363.305,229.679 369.033,227.188 372.017 C 222.415 377.735,217.519 380.387,214.410 378.939 C 210.693 377.208,213.122 373.093,217.067 374.437 L 217.860 374.707 216.888 375.098 C 214.626 376.008,214.289 378.019,216.288 378.679 C 219.380 379.700,221.853 374.255,218.938 372.844 C 213.806 370.359,206.929 377.060,211.018 380.560 C 216.007 384.831,226.236 377.586,233.301 364.777 L 234.298 362.972 235.690 362.190 C 237.491 361.181,239.816 359.585,241.294 358.344 L 242.464 357.361 242.566 357.870 C 243.384 361.963,249.340 359.796,253.226 353.991 L 254.094 352.695 254.029 354.324 C 253.904 357.436,254.903 357.571,257.615 354.807 C 260.494 351.875,261.722 349.833,260.605 349.833 C 260.325 349.833,260.076 350.039,259.745 350.542 C 258.539 352.378,257.190 353.590,256.794 353.194 C 255.702 352.102,257.378 341.529,261.567 323.083 C 263.228 315.767,267.641 293.585,267.469 293.414 C 267.440 293.384,267.287 293.455,267.129 293.570 M80.892 305.957 C 85.596 308.420,84.475 311.167,78.767 311.167 C 75.895 311.167,74.942 310.489,72.986 307.053 C 72.483 306.170,72.195 306.284,76.167 305.792 C 78.046 305.559,79.610 305.361,79.642 305.351 C 79.675 305.341,80.237 305.614,80.892 305.957 M88.049 312.455 C 90.806 313.738,91.253 315.336,89.215 316.630 C 86.487 318.362,83.031 318.021,80.478 315.768 C 78.785 314.274,76.984 312.419,77.349 312.544 C 79.512 313.290,84.039 313.035,85.353 312.092 C 86.032 311.605,86.296 311.640,88.049 312.455 M98.440 322.922 C 103.993 324.507,104.618 327.088,99.751 328.333 C 98.271 328.712,95.955 328.777,95.382 328.456 C 95.180 328.343,94.336 327.762,93.507 327.167 C 92.678 326.571,91.403 325.740,90.673 325.321 L 89.346 324.559 91.711 323.922 C 93.012 323.572,94.566 323.114,95.163 322.905 C 96.556 322.418,96.676 322.418,98.440 322.922 M107.338 328.311 C 111.358 329.460,111.708 331.831,108.092 333.417 C 104.472 335.004,101.848 334.335,98.000 330.846 L 97.083 330.014 98.280 330.007 C 100.839 329.992,103.905 329.285,105.167 328.419 C 105.882 327.928,105.983 327.923,107.338 328.311 M279.337 336.518 C 278.595 342.975,275.257 347.486,272.854 345.281 C 271.252 343.810,272.212 338.840,274.333 337.622 C 275.388 337.017,277.901 334.658,278.803 333.427 L 279.417 332.589 279.469 333.753 C 279.498 334.393,279.438 335.637,279.337 336.518 M271.071 340.339 C 270.274 342.228,269.963 343.548,269.959 345.050 C 269.956 346.518,269.410 347.612,267.999 348.981 C 265.340 351.562,262.855 348.531,264.298 344.466 C 265.315 341.602,265.926 341.060,269.833 339.559 C 271.747 338.824,271.718 338.806,271.071 340.339 M234.397 343.550 C 241.189 346.063,240.012 353.907,232.053 359.164 C 229.517 360.839,228.595 361.113,224.833 361.315 C 221.055 361.517,220.410 361.681,217.250 363.239 C 214.387 364.650,213.721 364.827,210.792 364.955 C 208.218 365.068,208.252 365.159,210.041 362.948 C 214.477 357.465,217.963 354.042,220.358 352.821 C 221.168 352.407,221.099 352.376,221.405 353.297 C 222.356 356.160,225.743 357.105,227.539 355.007 C 229.966 352.171,227.139 348.904,223.266 350.070 C 222.327 350.353,222.232 350.242,222.395 349.056 C 222.960 344.930,229.730 341.824,234.397 343.550 M107.445 345.882 C 106.547 346.361,106.314 346.406,104.343 346.494 C 102.063 346.594,101.667 346.734,101.667 347.437 C 101.667 349.123,104.952 349.032,107.961 347.262 C 110.274 345.901,109.799 344.630,107.445 345.882 M108.581 347.765 C 106.806 348.720,106.200 348.985,104.783 349.423 C 101.834 350.337,100.897 351.770,103.272 351.736 C 104.655 351.715,105.320 351.447,106.880 350.278 C 107.634 349.714,108.775 348.989,109.417 348.666 C 110.273 348.235,110.583 347.991,110.583 347.748 C 110.583 347.214,109.588 347.223,108.581 347.765 M112.130 348.156 C 108.815 349.452,106.925 353.000,109.550 353.000 C 110.741 353.000,111.095 352.720,111.234 351.666 C 111.381 350.560,112.158 349.686,113.598 349.005 C 114.186 348.728,114.667 348.440,114.667 348.367 C 114.667 347.780,113.369 347.672,112.130 348.156 M225.036 351.674 C 226.724 352.143,227.550 353.829,226.338 354.332 C 225.270 354.774,222.833 352.992,222.833 351.769 C 222.833 351.508,224.223 351.448,225.036 351.674 M190.233 354.900 C 189.544 355.589,189.456 356.520,190.012 357.228 C 190.644 358.030,192.523 357.730,192.968 356.755 C 193.815 354.894,191.685 353.449,190.233 354.900 M208.477 356.984 C 210.484 358.413,209.451 362.292,206.479 364.489 L 205.977 364.860 203.447 364.512 C 202.055 364.321,200.257 364.099,199.450 364.019 C 197.618 363.837,197.675 363.939,198.582 362.445 C 200.957 358.533,206.419 355.518,208.477 356.984 M249.909 362.745 C 248.375 364.756,248.501 369.667,250.087 369.667 C 251.385 369.667,252.062 368.113,251.273 366.942 C 250.511 365.813,250.414 365.250,250.758 363.966 C 251.256 362.105,251.255 362.167,250.778 362.167 C 250.486 362.167,250.211 362.350,249.909 362.745 M146.845 363.655 C 146.026 364.442,144.770 365.051,143.433 365.309 C 140.907 365.797,140.494 367.854,142.971 367.609 C 145.095 367.400,149.047 364.186,148.423 363.176 C 148.194 362.807,147.513 363.013,146.845 363.655 M152.255 364.530 C 150.222 365.602,148.178 369.154,149.077 370.053 C 149.457 370.433,150.459 370.408,151.125 370.002 C 151.689 369.658,151.713 369.582,151.670 368.306 C 151.635 367.274,151.991 366.616,153.206 365.475 C 154.548 364.214,153.961 363.631,152.255 364.530 M244.878 364.375 C 244.788 364.490,244.625 364.950,244.516 365.397 C 244.221 366.605,243.776 367.370,242.691 368.536 C 240.905 370.455,240.948 371.717,242.783 371.257 C 244.595 370.802,247.076 364.167,245.434 364.167 C 245.218 364.167,244.967 364.260,244.878 364.375 M148.917 364.807 C 148.642 364.975,148.042 365.471,147.583 365.908 C 147.125 366.345,146.037 367.174,145.167 367.750 C 143.179 369.063,142.622 369.632,142.695 370.273 C 142.864 371.748,145.376 370.494,147.425 367.911 C 148.010 367.174,148.827 366.317,149.242 366.006 C 150.061 365.393,150.339 364.878,149.976 364.648 C 149.647 364.440,149.475 364.466,148.917 364.807 M246.938 365.125 C 246.802 365.388,246.537 366.222,246.348 366.979 C 246.160 367.735,245.701 369.006,245.328 369.802 C 244.218 372.171,244.082 373.500,244.951 373.500 C 246.022 373.500,246.928 371.746,247.243 369.061 C 247.371 367.973,247.587 366.746,247.725 366.333 C 248.160 365.025,248.146 364.757,247.635 364.698 C 247.282 364.658,247.133 364.749,246.938 365.125 M201.654 366.838 C 202.519 366.929,203.259 367.037,203.300 367.078 C 203.341 367.119,202.826 367.921,202.156 368.860 C 196.706 376.493,192.465 379.514,189.481 377.890 C 188.469 377.339,188.450 377.405,189.886 376.472 C 192.233 374.947,196.000 371.235,198.742 367.743 C 199.205 367.154,199.696 366.672,199.833 366.672 C 199.971 366.672,200.790 366.747,201.654 366.838 " stroke="none" fill="#000000" fill-rule="evenodd"></path></g></svg>